# xmcd
#
# Track frame offsets: 
#        150
#        21286
#        51932
#        68311
#        84468
#        101414
#        124607
#
# Disc length: 1945 seconds
#
# Revision: 0
# Processed by: cddbd v1.5.2PL0 Copyright (c) Steve Scherf et al.
# Submitted via: ExactAudioCopy v1.0b4
#
DISCID=4d079707
DTITLE=Mississippi MacDonald and The Cottonmouth Kings - Dress for the M
DTITLE=oney
DYEAR=2016
DGENRE=Blues
TTITLE0=Dress for the Money
TTITLE1=Too Much, Too Little, Not Enough
TTITLE2=Big Man, Red Suit
TTITLE3=Blacksnake Brown
TTITLE4=Even If It Makes Me Poor
TTITLE5=This Old City
TTITLE6=When It All Comes Down
EXTD=
EXTT0=
EXTT1=
EXTT2=
EXTT3=
EXTT4=
EXTT5=
EXTT6=
PLAYORDER=
